<svg xmlns="http://www.w3.org/2000/svg" id="export" class="canvas" preserveAspectRatio="xMidYMid meet" style="" width="139" height="918"><rect id="background" fill="#fff" pointer-events="all" width="139" height="918"/><g id="origin" transform="translate(6.273622131347657, 6.273622131347657) scale(1)"><g id="clusters" class="clusters"/><g id="edge-paths" class="edge-paths"><defs><marker id="arrowhead" viewBox="0 0 10 10" refX="9" refY="5" markerUnits="strokeWidth" markerWidth="8" markerHeight="6" orient="auto" style="fill: rgb(0, 0, 0);"><path d="M 0 0 L 10 5 L 0 10 L 4 5 z" style="stroke-width: 1;"/></marker><marker id="arrowhead-select" viewBox="0 0 10 10" refX="9" refY="5" markerUnits="strokeWidth" markerWidth="8" markerHeight="6" orient="auto" style="fill: rgb(238, 0, 0);"><path d="M 0 0 L 10 5 L 0 10 L 4 5 z" style="stroke-width: 1;"/></marker><marker id="arrowhead-hover" viewBox="0 0 10 10" refX="9" refY="5" markerUnits="strokeWidth" markerWidth="8" markerHeight="6" orient="auto"><path d="M 0 0 L 10 5 L 0 10 L 4 5 z" style="stroke-width: 1;"/></marker></defs><path id="edge-input" class="edge-path" d="M54.8125,20L54.8125,21.666666666666668C54.8125,23.333333333333332,54.8125,26.666666666666668,54.8125,30C54.8125,33.333333333333336,54.8125,36.666666666666664,54.8125,40C54.8125,43.333333333333336,54.8125,46.666666666666664,54.8125,50C54.8125,53.333333333333336,54.8125,56.666666666666664,54.8125,58.333333333333336L54.8125,60" style="stroke: rgb(0, 0, 0); stroke-width: 1px; fill: none; marker-end: url(&quot;#arrowhead&quot;);"/><path class="edge-path-hit-test" d="M54.8125,20L54.8125,21.666666666666668C54.8125,23.333333333333332,54.8125,26.666666666666668,54.8125,30C54.8125,33.333333333333336,54.8125,36.666666666666664,54.8125,40C54.8125,43.333333333333336,54.8125,46.666666666666664,54.8125,50C54.8125,53.333333333333336,54.8125,56.666666666666664,54.8125,58.333333333333336L54.8125,60" style="pointer-events: stroke; stroke-width: 0.5em; fill: none; stroke: rgb(0, 0, 0); stroke-opacity: 0.001;"/><path id="edge-/cnn/cnn.0/Conv_output_0" class="edge-path" d="M54.8125,110L54.8125,111.66666666666667C54.8125,113.33333333333333,54.8125,116.66666666666667,54.8125,120C54.8125,123.33333333333333,54.8125,126.66666666666667,54.8125,128.33333333333334L54.8125,130" style="stroke: rgb(0, 0, 0); stroke-width: 1px; fill: none; marker-end: url(&quot;#arrowhead&quot;);"/><path class="edge-path-hit-test" d="M54.8125,110L54.8125,111.66666666666667C54.8125,113.33333333333333,54.8125,116.66666666666667,54.8125,120C54.8125,123.33333333333333,54.8125,126.66666666666667,54.8125,128.33333333333334L54.8125,130" style="pointer-events: stroke; stroke-width: 0.5em; fill: none; stroke: rgb(0, 0, 0); stroke-opacity: 0.001;"/><path id="edge-/cnn/cnn.2/Relu_output_0" class="edge-path" d="M54.8125,150L54.8125,151.66666666666666C54.8125,153.33333333333334,54.8125,156.66666666666666,54.8125,160C54.8125,163.33333333333334,54.8125,166.66666666666666,54.8125,168.33333333333334L54.8125,170" style="stroke: rgb(0, 0, 0); stroke-width: 1px; fill: none; marker-end: url(&quot;#arrowhead&quot;);"/><path class="edge-path-hit-test" d="M54.8125,150L54.8125,151.66666666666666C54.8125,153.33333333333334,54.8125,156.66666666666666,54.8125,160C54.8125,163.33333333333334,54.8125,166.66666666666666,54.8125,168.33333333333334L54.8125,170" style="pointer-events: stroke; stroke-width: 0.5em; fill: none; stroke: rgb(0, 0, 0); stroke-opacity: 0.001;"/><path id="edge-/cnn/cnn.3/Conv_output_0" class="edge-path" d="M54.8125,220L54.8125,221.66666666666666C54.8125,223.33333333333334,54.8125,226.66666666666666,54.8125,230C54.8125,233.33333333333334,54.8125,236.66666666666666,54.8125,238.33333333333334L54.8125,240" style="stroke: rgb(0, 0, 0); stroke-width: 1px; fill: none; marker-end: url(&quot;#arrowhead&quot;);"/><path class="edge-path-hit-test" d="M54.8125,220L54.8125,221.66666666666666C54.8125,223.33333333333334,54.8125,226.66666666666666,54.8125,230C54.8125,233.33333333333334,54.8125,236.66666666666666,54.8125,238.33333333333334L54.8125,240" style="pointer-events: stroke; stroke-width: 0.5em; fill: none; stroke: rgb(0, 0, 0); stroke-opacity: 0.001;"/><path id="edge-/cnn/cnn.5/Relu_output_0" class="edge-path" d="M54.8125,260L54.8125,261.6666666666667C54.8125,263.3333333333333,54.8125,266.6666666666667,54.8125,270C54.8125,273.3333333333333,54.8125,276.6666666666667,54.8125,278.3333333333333L54.8125,280" style="stroke: rgb(0, 0, 0); stroke-width: 1px; fill: none; marker-end: url(&quot;#arrowhead&quot;);"/><path class="edge-path-hit-test" d="M54.8125,260L54.8125,261.6666666666667C54.8125,263.3333333333333,54.8125,266.6666666666667,54.8125,270C54.8125,273.3333333333333,54.8125,276.6666666666667,54.8125,278.3333333333333L54.8125,280" style="pointer-events: stroke; stroke-width: 0.5em; fill: none; stroke: rgb(0, 0, 0); stroke-opacity: 0.001;"/><path id="edge-/cnn/cnn.6/Conv_output_0" class="edge-path" d="M54.8125,330L54.8125,331.6666666666667C54.8125,333.3333333333333,54.8125,336.6666666666667,54.8125,340C54.8125,343.3333333333333,54.8125,346.6666666666667,54.8125,348.3333333333333L54.8125,350" style="stroke: rgb(0, 0, 0); stroke-width: 1px; fill: none; marker-end: url(&quot;#arrowhead&quot;);"/><path class="edge-path-hit-test" d="M54.8125,330L54.8125,331.6666666666667C54.8125,333.3333333333333,54.8125,336.6666666666667,54.8125,340C54.8125,343.3333333333333,54.8125,346.6666666666667,54.8125,348.3333333333333L54.8125,350" style="pointer-events: stroke; stroke-width: 0.5em; fill: none; stroke: rgb(0, 0, 0); stroke-opacity: 0.001;"/><path id="edge-/cnn/cnn.8/Relu_output_0" class="edge-path" d="M54.8125,370L54.8125,371.6666666666667C54.8125,373.3333333333333,54.8125,376.6666666666667,54.8125,380C54.8125,383.3333333333333,54.8125,386.6666666666667,54.8125,388.3333333333333L54.8125,390" style="stroke: rgb(0, 0, 0); stroke-width: 1px; fill: none; marker-end: url(&quot;#arrowhead&quot;);"/><path class="edge-path-hit-test" d="M54.8125,370L54.8125,371.6666666666667C54.8125,373.3333333333333,54.8125,376.6666666666667,54.8125,380C54.8125,383.3333333333333,54.8125,386.6666666666667,54.8125,388.3333333333333L54.8125,390" style="pointer-events: stroke; stroke-width: 0.5em; fill: none; stroke: rgb(0, 0, 0); stroke-opacity: 0.001;"/><path id="edge-/cnn/cnn.9/Conv_output_0" class="edge-path" d="M54.8125,440L54.8125,441.6666666666667C54.8125,443.3333333333333,54.8125,446.6666666666667,54.8125,450C54.8125,453.3333333333333,54.8125,456.6666666666667,54.8125,458.3333333333333L54.8125,460" style="stroke: rgb(0, 0, 0); stroke-width: 1px; fill: none; marker-end: url(&quot;#arrowhead&quot;);"/><path class="edge-path-hit-test" d="M54.8125,440L54.8125,441.6666666666667C54.8125,443.3333333333333,54.8125,446.6666666666667,54.8125,450C54.8125,453.3333333333333,54.8125,456.6666666666667,54.8125,458.3333333333333L54.8125,460" style="pointer-events: stroke; stroke-width: 0.5em; fill: none; stroke: rgb(0, 0, 0); stroke-opacity: 0.001;"/><path id="edge-/cnn/cnn.11/Relu_output_0" class="edge-path" d="M54.8125,480L54.8125,481.6666666666667C54.8125,483.3333333333333,54.8125,486.6666666666667,54.8125,490C54.8125,493.3333333333333,54.8125,496.6666666666667,54.8125,498.3333333333333L54.8125,500" style="stroke: rgb(0, 0, 0); stroke-width: 1px; fill: none; marker-end: url(&quot;#arrowhead&quot;);"/><path class="edge-path-hit-test" d="M54.8125,480L54.8125,481.6666666666667C54.8125,483.3333333333333,54.8125,486.6666666666667,54.8125,490C54.8125,493.3333333333333,54.8125,496.6666666666667,54.8125,498.3333333333333L54.8125,500" style="pointer-events: stroke; stroke-width: 0.5em; fill: none; stroke: rgb(0, 0, 0); stroke-opacity: 0.001;"/><path id="edge-/pool/GlobalAveragePool_output_0" class="edge-path" d="M69.1875,520L71.58333333333333,521.6666666666666C73.97916666666667,523.3333333333334,78.77083333333333,526.6666666666666,81.16666666666667,530C83.5625,533.3333333333334,83.5625,536.6666666666666,83.5625,538.3333333333334L83.5625,540" style="stroke: rgb(0, 0, 0); stroke-width: 1px; fill: none; marker-end: url(&quot;#arrowhead&quot;);"/><path class="edge-path-hit-test" d="M69.1875,520L71.58333333333333,521.6666666666666C73.97916666666667,523.3333333333334,78.77083333333333,526.6666666666666,81.16666666666667,530C83.5625,533.3333333333334,83.5625,536.6666666666666,83.5625,538.3333333333334L83.5625,540" style="pointer-events: stroke; stroke-width: 0.5em; fill: none; stroke: rgb(0, 0, 0); stroke-opacity: 0.001;"/><path id="edge-/pool/GlobalAveragePool_output_0" class="edge-path" d="M40.4375,520L38.041666666666664,521.6666666666666C35.645833333333336,523.3333333333334,30.854166666666668,526.6666666666666,28.458333333333332,531.6666666666666C26.0625,536.6666666666666,26.0625,543.3333333333334,26.0625,550C26.0625,556.6666666666666,26.0625,563.3333333333334,26.0625,571.5C26.0625,579.6666666666666,26.0625,589.3333333333334,26.0625,599C26.0625,608.6666666666666,26.0625,618.3333333333334,26.0625,628C26.0625,637.6666666666666,26.0625,647.3333333333334,26.0625,657C26.0625,666.6666666666666,26.0625,676.3333333333334,26.0625,686C26.0625,695.6666666666666,26.0625,705.3333333333334,26.0625,715C26.0625,724.6666666666666,26.0625,734.3333333333334,28.458333333333332,740.8333333333334C30.854166666666668,747.3333333333334,35.645833333333336,750.6666666666666,38.041666666666664,752.3333333333334L40.4375,754" style="stroke: rgb(0, 0, 0); stroke-width: 1px; fill: none; marker-end: url(&quot;#arrowhead&quot;);"/><path class="edge-path-hit-test" d="M40.4375,520L38.041666666666664,521.6666666666666C35.645833333333336,523.3333333333334,30.854166666666668,526.6666666666666,28.458333333333332,531.6666666666666C26.0625,536.6666666666666,26.0625,543.3333333333334,26.0625,550C26.0625,556.6666666666666,26.0625,563.3333333333334,26.0625,571.5C26.0625,579.6666666666666,26.0625,589.3333333333334,26.0625,599C26.0625,608.6666666666666,26.0625,618.3333333333334,26.0625,628C26.0625,637.6666666666666,26.0625,647.3333333333334,26.0625,657C26.0625,666.6666666666666,26.0625,676.3333333333334,26.0625,686C26.0625,695.6666666666666,26.0625,705.3333333333334,26.0625,715C26.0625,724.6666666666666,26.0625,734.3333333333334,28.458333333333332,740.8333333333334C30.854166666666668,747.3333333333334,35.645833333333336,750.6666666666666,38.041666666666664,752.3333333333334L40.4375,754" style="pointer-events: stroke; stroke-width: 0.5em; fill: none; stroke: rgb(0, 0, 0); stroke-opacity: 0.001;"/><path id="edge-/Shape_output_0" class="edge-path" d="M83.5625,560L83.5625,561.6666666666666C83.5625,563.3333333333334,83.5625,566.6666666666666,83.5625,570C83.5625,573.3333333333334,83.5625,576.6666666666666,83.5625,578.3333333333334L83.5625,580" style="stroke: rgb(0, 0, 0); stroke-width: 1px; fill: none; marker-end: url(&quot;#arrowhead&quot;);"/><path class="edge-path-hit-test" d="M83.5625,560L83.5625,561.6666666666666C83.5625,563.3333333333334,83.5625,566.6666666666666,83.5625,570C83.5625,573.3333333333334,83.5625,576.6666666666666,83.5625,578.3333333333334L83.5625,580" style="pointer-events: stroke; stroke-width: 0.5em; fill: none; stroke: rgb(0, 0, 0); stroke-opacity: 0.001;"/><path id="edge-/Gather_output_0" class="edge-path" d="M83.5625,618L83.5625,619.6666666666666C83.5625,621.3333333333334,83.5625,624.6666666666666,83.5625,628C83.5625,631.3333333333334,83.5625,634.6666666666666,83.5625,636.3333333333334L83.5625,638" style="stroke: rgb(0, 0, 0); stroke-width: 1px; fill: none; marker-end: url(&quot;#arrowhead&quot;);"/><path class="edge-path-hit-test" d="M83.5625,618L83.5625,619.6666666666666C83.5625,621.3333333333334,83.5625,624.6666666666666,83.5625,628C83.5625,631.3333333333334,83.5625,634.6666666666666,83.5625,636.3333333333334L83.5625,638" style="pointer-events: stroke; stroke-width: 0.5em; fill: none; stroke: rgb(0, 0, 0); stroke-opacity: 0.001;"/><path id="edge-/Unsqueeze_output_0" class="edge-path" d="M83.5625,676L83.5625,677.6666666666666C83.5625,679.3333333333334,83.5625,682.6666666666666,83.5625,686C83.5625,689.3333333333334,83.5625,692.6666666666666,83.5625,694.3333333333334L83.5625,696" style="stroke: rgb(0, 0, 0); stroke-width: 1px; fill: none; marker-end: url(&quot;#arrowhead&quot;);"/><path class="edge-path-hit-test" d="M83.5625,676L83.5625,677.6666666666666C83.5625,679.3333333333334,83.5625,682.6666666666666,83.5625,686C83.5625,689.3333333333334,83.5625,692.6666666666666,83.5625,694.3333333333334L83.5625,696" style="pointer-events: stroke; stroke-width: 0.5em; fill: none; stroke: rgb(0, 0, 0); stroke-opacity: 0.001;"/><path id="edge-/Concat_output_0" class="edge-path" d="M83.5625,734L83.5625,735.6666666666666C83.5625,737.3333333333334,83.5625,740.6666666666666,81.16666666666667,744C78.77083333333333,747.3333333333334,73.97916666666667,750.6666666666666,71.58333333333333,752.3333333333334L69.1875,754" style="stroke: rgb(0, 0, 0); stroke-width: 1px; fill: none; marker-end: url(&quot;#arrowhead&quot;);"/><path class="edge-path-hit-test" d="M83.5625,734L83.5625,735.6666666666666C83.5625,737.3333333333334,83.5625,740.6666666666666,81.16666666666667,744C78.77083333333333,747.3333333333334,73.97916666666667,750.6666666666666,71.58333333333333,752.3333333333334L69.1875,754" style="pointer-events: stroke; stroke-width: 0.5em; fill: none; stroke: rgb(0, 0, 0); stroke-opacity: 0.001;"/><path id="edge-/Reshape_output_0" class="edge-path" d="M54.8125,774L54.8125,775.6666666666666C54.8125,777.3333333333334,54.8125,780.6666666666666,54.8125,784C54.8125,787.3333333333334,54.8125,790.6666666666666,54.8125,792.3333333333334L54.8125,794" style="stroke: rgb(0, 0, 0); stroke-width: 1px; fill: none; marker-end: url(&quot;#arrowhead&quot;);"/><path class="edge-path-hit-test" d="M54.8125,774L54.8125,775.6666666666666C54.8125,777.3333333333334,54.8125,780.6666666666666,54.8125,784C54.8125,787.3333333333334,54.8125,790.6666666666666,54.8125,792.3333333333334L54.8125,794" style="pointer-events: stroke; stroke-width: 0.5em; fill: none; stroke: rgb(0, 0, 0); stroke-opacity: 0.001;"/><path id="edge-output" class="edge-path" d="M54.8125,844L54.8125,847.4166666666666C54.8125,850.8333333333334,54.8125,857.6666666666666,54.8125,864.5C54.8125,871.3333333333334,54.8125,878.1666666666666,54.8125,881.5833333333334L54.8125,885" style="stroke: rgb(0, 0, 0); stroke-width: 1px; fill: none; marker-end: url(&quot;#arrowhead&quot;);"/><path class="edge-path-hit-test" d="M54.8125,844L54.8125,847.4166666666666C54.8125,850.8333333333334,54.8125,857.6666666666666,54.8125,864.5C54.8125,871.3333333333334,54.8125,878.1666666666666,54.8125,881.5833333333334L54.8125,885" style="pointer-events: stroke; stroke-width: 0.5em; fill: none; stroke: rgb(0, 0, 0); stroke-opacity: 0.001;"/></g><g id="edge-labels" class="edge-labels"><text class="edge-label" id="edge-label-edge-output" transform="translate(59.8125,859)" style="opacity: 1; font-family: -apple-system, BlinkMacSystemFont, &quot;Segoe WPC&quot;, &quot;Segoe UI&quot;, Ubuntu, &quot;Droid Sans&quot;, sans-serif, &quot;PingFang SC&quot;; font-size: 10px;"><tspan xml:space="preserve" dy="1em" x="1">batch_size×10</tspan></text></g><g id="nodes" class="nodes"><g id="input-name-input" class="node graph-input" transform="translate(34.367584228515625,0)" style="opacity: 1;"><g class="node-item graph-item-input" transform="translate(0,0)"><path d="M5,0h30.88983154296875a5,5 0 0 1 5,5v10a5,5 0 0 1 -5,5h-30.88983154296875a5,5 0 0 1 -5,-5v-10a5,5 0 0 1 5,-5z" style="stroke: rgb(0, 0, 0); fill: rgb(238, 238, 238); stroke-width: 0;"/><text x="6" y="13" style="font-family: -apple-system, BlinkMacSystemFont, &quot;Segoe WPC&quot;, &quot;Segoe UI&quot;, Ubuntu, &quot;Droid Sans&quot;, sans-serif, &quot;PingFang SC&quot;; font-size: 11px; text-rendering: geometricprecision;">input</text><title>float32[batch_size,3,32,32]</title></g><path class="node border" d="M5,0h30.88983154296875a5,5 0 0 1 5,5v10a5,5 0 0 1 -5,5h-30.88983154296875a5,5 0 0 1 -5,-5v-10a5,5 0 0 1 5,-5z" style="stroke: rgb(51, 51, 51); fill: none; stroke-width: 1px;"/></g><g id="node-name-/cnn/cnn.0/Conv" class="node graph-node" transform="translate(15.234375,60)" style="opacity: 1;"><g class="node-item node-item-type node-item-type-layer" transform="translate(0,0)"><path d="M5,0h69.15625a5,5 0 0 1 5,5v15a0,0 0 0 1 0,0h-79.15625a0,0 0 0 1 0,0v-15a5,5 0 0 1 5,-5z" style="stroke: rgb(0, 0, 0); fill: rgb(51, 85, 136); stroke-width: 0;"/><text x="6" y="13" style="font-family: -apple-system, BlinkMacSystemFont, &quot;Segoe WPC&quot;, &quot;Segoe UI&quot;, Ubuntu, &quot;Droid Sans&quot;, sans-serif, &quot;PingFang SC&quot;; font-size: 11px; text-rendering: geometricprecision; fill: rgb(255, 255, 255);">Conv</text><title>/cnn/cnn.0/Conv</title></g><g class="node-attribute" transform="translate(0,20)"><path d="M0,0h79.15625a0,0 0 0 1 0,0v25a5,5 0 0 1 -5,5h-69.15625a5,5 0 0 1 -5,-5v-25a0,0 0 0 1 0,0z" style="stroke: rgb(0, 0, 0); fill: rgb(255, 255, 255); stroke-width: 0;"/><text id="initializer-onnx::Conv_56" xml:space="preserve" x="6" y="12" style="font-family: -apple-system, BlinkMacSystemFont, &quot;Segoe WPC&quot;, &quot;Segoe UI&quot;, Ubuntu, &quot;Droid Sans&quot;, sans-serif, &quot;PingFang SC&quot;; font-size: 9px; font-weight: normal; text-rendering: geometricprecision;"><title>float32[64,3,3,3]</title><tspan style="font-weight: bold;">W</tspan><tspan>〈64×3×3×3〉</tspan></text><text id="initializer-onnx::Conv_57" xml:space="preserve" x="6" y="24" style="font-family: -apple-system, BlinkMacSystemFont, &quot;Segoe WPC&quot;, &quot;Segoe UI&quot;, Ubuntu, &quot;Droid Sans&quot;, sans-serif, &quot;PingFang SC&quot;; font-size: 9px; font-weight: normal; text-rendering: geometricprecision;"><title>float32[64]</title><tspan style="font-weight: bold;">B</tspan><tspan>〈64〉</tspan></text><line class="node" x1="0" x2="79.15625" y1="0" y2="0" style="stroke: rgb(51, 51, 51); fill: none; stroke-width: 1px;"/></g><path class="node border" d="M5,0h69.15625a5,5 0 0 1 5,5v40a5,5 0 0 1 -5,5h-69.15625a5,5 0 0 1 -5,-5v-40a5,5 0 0 1 5,-5z" style="stroke: rgb(51, 51, 51); fill: none; stroke-width: 1px;"/></g><g id="node-name-/cnn/cnn.2/Relu" class="node graph-node" transform="translate(36.6171875,130)" style="opacity: 1;"><g class="node-item node-item-type node-item-type-activation" transform="translate(0,0)"><path d="M5,0h26.390625a5,5 0 0 1 5,5v10a5,5 0 0 1 -5,5h-26.390625a5,5 0 0 1 -5,-5v-10a5,5 0 0 1 5,-5z" style="stroke: rgb(0, 0, 0); fill: rgb(112, 41, 33); stroke-width: 0;"/><text x="6" y="13" style="font-family: -apple-system, BlinkMacSystemFont, &quot;Segoe WPC&quot;, &quot;Segoe UI&quot;, Ubuntu, &quot;Droid Sans&quot;, sans-serif, &quot;PingFang SC&quot;; font-size: 11px; text-rendering: geometricprecision; fill: rgb(255, 255, 255);">Relu</text><title>/cnn/cnn.2/Relu</title></g><path class="node border" d="M5,0h26.390625a5,5 0 0 1 5,5v10a5,5 0 0 1 -5,5h-26.390625a5,5 0 0 1 -5,-5v-10a5,5 0 0 1 5,-5z" style="stroke: rgb(51, 51, 51); fill: none; stroke-width: 1px;"/></g><g id="node-name-/cnn/cnn.3/Conv" class="node graph-node" transform="translate(10.156246185302734,170)" style="opacity: 1;"><g class="node-item node-item-type node-item-type-layer" transform="translate(0,0)"><path d="M5,0h79.3125a5,5 0 0 1 5,5v15a0,0 0 0 1 0,0h-89.3125a0,0 0 0 1 0,0v-15a5,5 0 0 1 5,-5z" style="stroke: rgb(0, 0, 0); fill: rgb(51, 85, 136); stroke-width: 0;"/><text x="6" y="13" style="font-family: -apple-system, BlinkMacSystemFont, &quot;Segoe WPC&quot;, &quot;Segoe UI&quot;, Ubuntu, &quot;Droid Sans&quot;, sans-serif, &quot;PingFang SC&quot;; font-size: 11px; text-rendering: geometricprecision; fill: rgb(255, 255, 255);">Conv</text><title>/cnn/cnn.3/Conv</title></g><g class="node-attribute" transform="translate(0,20)"><path d="M0,0h89.3125a0,0 0 0 1 0,0v25a5,5 0 0 1 -5,5h-79.3125a5,5 0 0 1 -5,-5v-25a0,0 0 0 1 0,0z" style="stroke: rgb(0, 0, 0); fill: rgb(255, 255, 255); stroke-width: 0;"/><text id="initializer-onnx::Conv_59" xml:space="preserve" x="6" y="12" style="font-family: -apple-system, BlinkMacSystemFont, &quot;Segoe WPC&quot;, &quot;Segoe UI&quot;, Ubuntu, &quot;Droid Sans&quot;, sans-serif, &quot;PingFang SC&quot;; font-size: 9px; font-weight: normal; text-rendering: geometricprecision;"><title>float32[128,64,3,3]</title><tspan style="font-weight: bold;">W</tspan><tspan>〈128×64×3×3〉</tspan></text><text id="initializer-onnx::Conv_60" xml:space="preserve" x="6" y="24" style="font-family: -apple-system, BlinkMacSystemFont, &quot;Segoe WPC&quot;, &quot;Segoe UI&quot;, Ubuntu, &quot;Droid Sans&quot;, sans-serif, &quot;PingFang SC&quot;; font-size: 9px; font-weight: normal; text-rendering: geometricprecision;"><title>float32[128]</title><tspan style="font-weight: bold;">B</tspan><tspan>〈128〉</tspan></text><line class="node" x1="0" x2="89.3125" y1="0" y2="0" style="stroke: rgb(51, 51, 51); fill: none; stroke-width: 1px;"/></g><path class="node border" d="M5,0h79.3125a5,5 0 0 1 5,5v40a5,5 0 0 1 -5,5h-79.3125a5,5 0 0 1 -5,-5v-40a5,5 0 0 1 5,-5z" style="stroke: rgb(51, 51, 51); fill: none; stroke-width: 1px;"/></g><g id="node-name-/cnn/cnn.5/Relu" class="node graph-node" transform="translate(36.6171875,240)" style="opacity: 1;"><g class="node-item node-item-type node-item-type-activation" transform="translate(0,0)"><path d="M5,0h26.390625a5,5 0 0 1 5,5v10a5,5 0 0 1 -5,5h-26.390625a5,5 0 0 1 -5,-5v-10a5,5 0 0 1 5,-5z" style="stroke: rgb(0, 0, 0); fill: rgb(112, 41, 33); stroke-width: 0;"/><text x="6" y="13" style="font-family: -apple-system, BlinkMacSystemFont, &quot;Segoe WPC&quot;, &quot;Segoe UI&quot;, Ubuntu, &quot;Droid Sans&quot;, sans-serif, &quot;PingFang SC&quot;; font-size: 11px; text-rendering: geometricprecision; fill: rgb(255, 255, 255);">Relu</text><title>/cnn/cnn.5/Relu</title></g><path class="node border" d="M5,0h26.390625a5,5 0 0 1 5,5v10a5,5 0 0 1 -5,5h-26.390625a5,5 0 0 1 -5,-5v-10a5,5 0 0 1 5,-5z" style="stroke: rgb(51, 51, 51); fill: none; stroke-width: 1px;"/></g><g id="node-name-/cnn/cnn.6/Conv" class="node graph-node" transform="translate(7.6171875,280)" style="opacity: 1;"><g class="node-item node-item-type node-item-type-layer" transform="translate(0,0)"><path d="M5,0h84.390625a5,5 0 0 1 5,5v15a0,0 0 0 1 0,0h-94.390625a0,0 0 0 1 0,0v-15a5,5 0 0 1 5,-5z" style="stroke: rgb(0, 0, 0); fill: rgb(51, 85, 136); stroke-width: 0;"/><text x="6" y="13" style="font-family: -apple-system, BlinkMacSystemFont, &quot;Segoe WPC&quot;, &quot;Segoe UI&quot;, Ubuntu, &quot;Droid Sans&quot;, sans-serif, &quot;PingFang SC&quot;; font-size: 11px; text-rendering: geometricprecision; fill: rgb(255, 255, 255);">Conv</text><title>/cnn/cnn.6/Conv</title></g><g class="node-attribute" transform="translate(0,20)"><path d="M0,0h94.390625a0,0 0 0 1 0,0v25a5,5 0 0 1 -5,5h-84.390625a5,5 0 0 1 -5,-5v-25a0,0 0 0 1 0,0z" style="stroke: rgb(0, 0, 0); fill: rgb(255, 255, 255); stroke-width: 0;"/><text id="initializer-onnx::Conv_62" xml:space="preserve" x="6" y="12" style="font-family: -apple-system, BlinkMacSystemFont, &quot;Segoe WPC&quot;, &quot;Segoe UI&quot;, Ubuntu, &quot;Droid Sans&quot;, sans-serif, &quot;PingFang SC&quot;; font-size: 9px; font-weight: normal; text-rendering: geometricprecision;"><title>float32[256,128,3,3]</title><tspan style="font-weight: bold;">W</tspan><tspan>〈256×128×3×3〉</tspan></text><text id="initializer-onnx::Conv_63" xml:space="preserve" x="6" y="24" style="font-family: -apple-system, BlinkMacSystemFont, &quot;Segoe WPC&quot;, &quot;Segoe UI&quot;, Ubuntu, &quot;Droid Sans&quot;, sans-serif, &quot;PingFang SC&quot;; font-size: 9px; font-weight: normal; text-rendering: geometricprecision;"><title>float32[256]</title><tspan style="font-weight: bold;">B</tspan><tspan>〈256〉</tspan></text><line class="node" x1="0" x2="94.390625" y1="0" y2="0" style="stroke: rgb(51, 51, 51); fill: none; stroke-width: 1px;"/></g><path class="node border" d="M5,0h84.390625a5,5 0 0 1 5,5v40a5,5 0 0 1 -5,5h-84.390625a5,5 0 0 1 -5,-5v-40a5,5 0 0 1 5,-5z" style="stroke: rgb(51, 51, 51); fill: none; stroke-width: 1px;"/></g><g id="node-name-/cnn/cnn.8/Relu" class="node graph-node" transform="translate(36.6171875,350)" style="opacity: 1;"><g class="node-item node-item-type node-item-type-activation" transform="translate(0,0)"><path d="M5,0h26.390625a5,5 0 0 1 5,5v10a5,5 0 0 1 -5,5h-26.390625a5,5 0 0 1 -5,-5v-10a5,5 0 0 1 5,-5z" style="stroke: rgb(0, 0, 0); fill: rgb(112, 41, 33); stroke-width: 0;"/><text x="6" y="13" style="font-family: -apple-system, BlinkMacSystemFont, &quot;Segoe WPC&quot;, &quot;Segoe UI&quot;, Ubuntu, &quot;Droid Sans&quot;, sans-serif, &quot;PingFang SC&quot;; font-size: 11px; text-rendering: geometricprecision; fill: rgb(255, 255, 255);">Relu</text><title>/cnn/cnn.8/Relu</title></g><path class="node border" d="M5,0h26.390625a5,5 0 0 1 5,5v10a5,5 0 0 1 -5,5h-26.390625a5,5 0 0 1 -5,-5v-10a5,5 0 0 1 5,-5z" style="stroke: rgb(51, 51, 51); fill: none; stroke-width: 1px;"/></g><g id="node-name-/cnn/cnn.9/Conv" class="node graph-node" transform="translate(7.6171875,390)" style="opacity: 1;"><g class="node-item node-item-type node-item-type-layer" transform="translate(0,0)"><path d="M5,0h84.390625a5,5 0 0 1 5,5v15a0,0 0 0 1 0,0h-94.390625a0,0 0 0 1 0,0v-15a5,5 0 0 1 5,-5z" style="stroke: rgb(0, 0, 0); fill: rgb(51, 85, 136); stroke-width: 0;"/><text x="6" y="13" style="font-family: -apple-system, BlinkMacSystemFont, &quot;Segoe WPC&quot;, &quot;Segoe UI&quot;, Ubuntu, &quot;Droid Sans&quot;, sans-serif, &quot;PingFang SC&quot;; font-size: 11px; text-rendering: geometricprecision; fill: rgb(255, 255, 255);">Conv</text><title>/cnn/cnn.9/Conv</title></g><g class="node-attribute" transform="translate(0,20)"><path d="M0,0h94.390625a0,0 0 0 1 0,0v25a5,5 0 0 1 -5,5h-84.390625a5,5 0 0 1 -5,-5v-25a0,0 0 0 1 0,0z" style="stroke: rgb(0, 0, 0); fill: rgb(255, 255, 255); stroke-width: 0;"/><text id="initializer-onnx::Conv_65" xml:space="preserve" x="6" y="12" style="font-family: -apple-system, BlinkMacSystemFont, &quot;Segoe WPC&quot;, &quot;Segoe UI&quot;, Ubuntu, &quot;Droid Sans&quot;, sans-serif, &quot;PingFang SC&quot;; font-size: 9px; font-weight: normal; text-rendering: geometricprecision;"><title>float32[512,256,3,3]</title><tspan style="font-weight: bold;">W</tspan><tspan>〈512×256×3×3〉</tspan></text><text id="initializer-onnx::Conv_66" xml:space="preserve" x="6" y="24" style="font-family: -apple-system, BlinkMacSystemFont, &quot;Segoe WPC&quot;, &quot;Segoe UI&quot;, Ubuntu, &quot;Droid Sans&quot;, sans-serif, &quot;PingFang SC&quot;; font-size: 9px; font-weight: normal; text-rendering: geometricprecision;"><title>float32[512]</title><tspan style="font-weight: bold;">B</tspan><tspan>〈512〉</tspan></text><line class="node" x1="0" x2="94.390625" y1="0" y2="0" style="stroke: rgb(51, 51, 51); fill: none; stroke-width: 1px;"/></g><path class="node border" d="M5,0h84.390625a5,5 0 0 1 5,5v40a5,5 0 0 1 -5,5h-84.390625a5,5 0 0 1 -5,-5v-40a5,5 0 0 1 5,-5z" style="stroke: rgb(51, 51, 51); fill: none; stroke-width: 1px;"/></g><g id="node-name-/cnn/cnn.11/Relu" class="node graph-node" transform="translate(36.6171875,460)" style="opacity: 1;"><g class="node-item node-item-type node-item-type-activation" transform="translate(0,0)"><path d="M5,0h26.390625a5,5 0 0 1 5,5v10a5,5 0 0 1 -5,5h-26.390625a5,5 0 0 1 -5,-5v-10a5,5 0 0 1 5,-5z" style="stroke: rgb(0, 0, 0); fill: rgb(112, 41, 33); stroke-width: 0;"/><text x="6" y="13" style="font-family: -apple-system, BlinkMacSystemFont, &quot;Segoe WPC&quot;, &quot;Segoe UI&quot;, Ubuntu, &quot;Droid Sans&quot;, sans-serif, &quot;PingFang SC&quot;; font-size: 11px; text-rendering: geometricprecision; fill: rgb(255, 255, 255);">Relu</text><title>/cnn/cnn.11/Relu</title></g><path class="node border" d="M5,0h26.390625a5,5 0 0 1 5,5v10a5,5 0 0 1 -5,5h-26.390625a5,5 0 0 1 -5,-5v-10a5,5 0 0 1 5,-5z" style="stroke: rgb(51, 51, 51); fill: none; stroke-width: 1px;"/></g><g id="node-name-/pool/GlobalAveragePool" class="node graph-node" transform="translate(0,500)" style="opacity: 1;"><g class="node-item node-item-type node-item-type-pool" transform="translate(0,0)"><path d="M5,0h99.625a5,5 0 0 1 5,5v10a5,5 0 0 1 -5,5h-99.625a5,5 0 0 1 -5,-5v-10a5,5 0 0 1 5,-5z" style="stroke: rgb(0, 0, 0); fill: rgb(51, 85, 51); stroke-width: 0;"/><text x="6" y="13" style="font-family: -apple-system, BlinkMacSystemFont, &quot;Segoe WPC&quot;, &quot;Segoe UI&quot;, Ubuntu, &quot;Droid Sans&quot;, sans-serif, &quot;PingFang SC&quot;; font-size: 11px; text-rendering: geometricprecision; fill: rgb(255, 255, 255);">GlobalAveragePool</text><title>/pool/GlobalAveragePool</title></g><path class="node border" d="M5,0h99.625a5,5 0 0 1 5,5v10a5,5 0 0 1 -5,5h-99.625a5,5 0 0 1 -5,-5v-10a5,5 0 0 1 5,-5z" style="stroke: rgb(51, 51, 51); fill: none; stroke-width: 1px;"/></g><g id="node-name-/Shape" class="node graph-node" transform="translate(61.3046875,540)" style="opacity: 1;"><g class="node-item node-item-type" transform="translate(0,0)"><path d="M5,0h34.515625a5,5 0 0 1 5,5v10a5,5 0 0 1 -5,5h-34.515625a5,5 0 0 1 -5,-5v-10a5,5 0 0 1 5,-5z" style="stroke: rgb(0, 0, 0); fill: rgb(0, 0, 0); stroke-width: 0;"/><text x="6" y="13" style="font-family: -apple-system, BlinkMacSystemFont, &quot;Segoe WPC&quot;, &quot;Segoe UI&quot;, Ubuntu, &quot;Droid Sans&quot;, sans-serif, &quot;PingFang SC&quot;; font-size: 11px; text-rendering: geometricprecision; fill: rgb(255, 255, 255);">Shape</text><title>/Shape</title></g><path class="node border" d="M5,0h34.515625a5,5 0 0 1 5,5v10a5,5 0 0 1 -5,5h-34.515625a5,5 0 0 1 -5,-5v-10a5,5 0 0 1 5,-5z" style="stroke: rgb(51, 51, 51); fill: none; stroke-width: 1px;"/></g><g id="node-name-/Gather" class="node graph-node" transform="translate(46.0625,580)" style="opacity: 1;"><g class="node-item node-item-type node-item-type-transform" transform="translate(0,0)"><path d="M5,0h65a5,5 0 0 1 5,5v15a0,0 0 0 1 0,0h-75a0,0 0 0 1 0,0v-15a5,5 0 0 1 5,-5z" style="stroke: rgb(0, 0, 0); fill: rgb(51, 85, 68); stroke-width: 0;"/><text x="6" y="13" style="font-family: -apple-system, BlinkMacSystemFont, &quot;Segoe WPC&quot;, &quot;Segoe UI&quot;, Ubuntu, &quot;Droid Sans&quot;, sans-serif, &quot;PingFang SC&quot;; font-size: 11px; text-rendering: geometricprecision; fill: rgb(255, 255, 255);">Gather</text><title>/Gather</title></g><g class="node-attribute" transform="translate(0,20)"><path d="M0,0h75a0,0 0 0 1 0,0v13a5,5 0 0 1 -5,5h-65a5,5 0 0 1 -5,-5v-13a0,0 0 0 1 0,0z" style="stroke: rgb(0, 0, 0); fill: rgb(255, 255, 255); stroke-width: 0;"/><text id="initializer-/Constant_output_0" xml:space="preserve" x="6" y="12" style="font-family: -apple-system, BlinkMacSystemFont, &quot;Segoe WPC&quot;, &quot;Segoe UI&quot;, Ubuntu, &quot;Droid Sans&quot;, sans-serif, &quot;PingFang SC&quot;; font-size: 9px; font-weight: normal; text-rendering: geometricprecision;"><title>int64</title><tspan>indices</tspan><tspan> = 0</tspan></text><line class="node" x1="0" x2="75" y1="0" y2="0" style="stroke: rgb(51, 51, 51); fill: none; stroke-width: 1px;"/></g><path class="node border" d="M5,0h65a5,5 0 0 1 5,5v28a5,5 0 0 1 -5,5h-65a5,5 0 0 1 -5,-5v-28a5,5 0 0 1 5,-5z" style="stroke: rgb(51, 51, 51); fill: none; stroke-width: 1px;"/></g><g id="node-name-/Unsqueeze" class="node graph-node" transform="translate(46.0625,638)" style="opacity: 1;"><g class="node-item node-item-type node-item-type-transform" transform="translate(0,0)"><path d="M5,0h65a5,5 0 0 1 5,5v15a0,0 0 0 1 0,0h-75a0,0 0 0 1 0,0v-15a5,5 0 0 1 5,-5z" style="stroke: rgb(0, 0, 0); fill: rgb(51, 85, 68); stroke-width: 0;"/><text x="6" y="13" style="font-family: -apple-system, BlinkMacSystemFont, &quot;Segoe WPC&quot;, &quot;Segoe UI&quot;, Ubuntu, &quot;Droid Sans&quot;, sans-serif, &quot;PingFang SC&quot;; font-size: 11px; text-rendering: geometricprecision; fill: rgb(255, 255, 255);">Unsqueeze</text><title>/Unsqueeze</title></g><g class="node-attribute" transform="translate(0,20)"><path d="M0,0h75a0,0 0 0 1 0,0v13a5,5 0 0 1 -5,5h-65a5,5 0 0 1 -5,-5v-13a0,0 0 0 1 0,0z" style="stroke: rgb(0, 0, 0); fill: rgb(255, 255, 255); stroke-width: 0;"/><text id="initializer-onnx::Unsqueeze_48" xml:space="preserve" x="6" y="12" style="font-family: -apple-system, BlinkMacSystemFont, &quot;Segoe WPC&quot;, &quot;Segoe UI&quot;, Ubuntu, &quot;Droid Sans&quot;, sans-serif, &quot;PingFang SC&quot;; font-size: 9px; font-weight: normal; text-rendering: geometricprecision;"><title>int64[1]</title><tspan style="font-weight: bold;">axes</tspan><tspan>〈1〉</tspan></text><line class="node" x1="0" x2="75" y1="0" y2="0" style="stroke: rgb(51, 51, 51); fill: none; stroke-width: 1px;"/></g><path class="node border" d="M5,0h65a5,5 0 0 1 5,5v28a5,5 0 0 1 -5,5h-65a5,5 0 0 1 -5,-5v-28a5,5 0 0 1 5,-5z" style="stroke: rgb(51, 51, 51); fill: none; stroke-width: 1px;"/></g><g id="node-name-/Concat" class="node graph-node" transform="translate(46.0625,696)" style="opacity: 1;"><g class="node-item node-item-type node-item-type-tensor" transform="translate(0,0)"><path d="M5,0h65a5,5 0 0 1 5,5v15a0,0 0 0 1 0,0h-75a0,0 0 0 1 0,0v-15a5,5 0 0 1 5,-5z" style="stroke: rgb(0, 0, 0); fill: rgb(89, 66, 59); stroke-width: 0;"/><text x="6" y="13" style="font-family: -apple-system, BlinkMacSystemFont, &quot;Segoe WPC&quot;, &quot;Segoe UI&quot;, Ubuntu, &quot;Droid Sans&quot;, sans-serif, &quot;PingFang SC&quot;; font-size: 11px; text-rendering: geometricprecision; fill: rgb(255, 255, 255);">Concat</text><title>/Concat</title></g><g class="node-attribute" transform="translate(0,20)"><path d="M0,0h75a0,0 0 0 1 0,0v13a5,5 0 0 1 -5,5h-65a5,5 0 0 1 -5,-5v-13a0,0 0 0 1 0,0z" style="stroke: rgb(0, 0, 0); fill: rgb(255, 255, 255); stroke-width: 0;"/><text xml:space="preserve" x="6" y="12" style="font-family: -apple-system, BlinkMacSystemFont, &quot;Segoe WPC&quot;, &quot;Segoe UI&quot;, Ubuntu, &quot;Droid Sans&quot;, sans-serif, &quot;PingFang SC&quot;; font-size: 9px; font-weight: normal; text-rendering: geometricprecision;"><tspan style="font-weight: bold;">〈…〉</tspan><tspan/></text><line class="node" x1="0" x2="75" y1="0" y2="0" style="stroke: rgb(51, 51, 51); fill: none; stroke-width: 1px;"/></g><path class="node border" d="M5,0h65a5,5 0 0 1 5,5v28a5,5 0 0 1 -5,5h-65a5,5 0 0 1 -5,-5v-28a5,5 0 0 1 5,-5z" style="stroke: rgb(51, 51, 51); fill: none; stroke-width: 1px;"/></g><g id="node-name-/Reshape" class="node graph-node" transform="translate(26.5,754)" style="opacity: 1;"><g class="node-item node-item-type node-item-type-shape" transform="translate(0,0)"><path d="M5,0h46.625a5,5 0 0 1 5,5v10a5,5 0 0 1 -5,5h-46.625a5,5 0 0 1 -5,-5v-10a5,5 0 0 1 5,-5z" style="stroke: rgb(0, 0, 0); fill: rgb(108, 79, 71); stroke-width: 0;"/><text x="6" y="13" style="font-family: -apple-system, BlinkMacSystemFont, &quot;Segoe WPC&quot;, &quot;Segoe UI&quot;, Ubuntu, &quot;Droid Sans&quot;, sans-serif, &quot;PingFang SC&quot;; font-size: 11px; text-rendering: geometricprecision; fill: rgb(255, 255, 255);">Reshape</text><title>/Reshape</title></g><path class="node border" d="M5,0h46.625a5,5 0 0 1 5,5v10a5,5 0 0 1 -5,5h-46.625a5,5 0 0 1 -5,-5v-10a5,5 0 0 1 5,-5z" style="stroke: rgb(51, 51, 51); fill: none; stroke-width: 1px;"/></g><g id="node-name-/linear/Gemm" class="node graph-node" transform="translate(17.3125,794)" style="opacity: 1;"><g class="node-item node-item-type node-item-type-layer" transform="translate(0,0)"><path d="M5,0h65a5,5 0 0 1 5,5v15a0,0 0 0 1 0,0h-75a0,0 0 0 1 0,0v-15a5,5 0 0 1 5,-5z" style="stroke: rgb(0, 0, 0); fill: rgb(51, 85, 136); stroke-width: 0;"/><text x="6" y="13" style="font-family: -apple-system, BlinkMacSystemFont, &quot;Segoe WPC&quot;, &quot;Segoe UI&quot;, Ubuntu, &quot;Droid Sans&quot;, sans-serif, &quot;PingFang SC&quot;; font-size: 11px; text-rendering: geometricprecision; fill: rgb(255, 255, 255);">Gemm</text><title>/linear/Gemm</title></g><g class="node-attribute" transform="translate(0,20)"><path d="M0,0h75a0,0 0 0 1 0,0v25a5,5 0 0 1 -5,5h-65a5,5 0 0 1 -5,-5v-25a0,0 0 0 1 0,0z" style="stroke: rgb(0, 0, 0); fill: rgb(255, 255, 255); stroke-width: 0;"/><text id="initializer-linear.weight" xml:space="preserve" x="6" y="12" style="font-family: -apple-system, BlinkMacSystemFont, &quot;Segoe WPC&quot;, &quot;Segoe UI&quot;, Ubuntu, &quot;Droid Sans&quot;, sans-serif, &quot;PingFang SC&quot;; font-size: 9px; font-weight: normal; text-rendering: geometricprecision;"><title>float32[10,512]</title><tspan style="font-weight: bold;">B</tspan><tspan>〈10×512〉</tspan></text><text id="initializer-linear.bias" xml:space="preserve" x="6" y="24" style="font-family: -apple-system, BlinkMacSystemFont, &quot;Segoe WPC&quot;, &quot;Segoe UI&quot;, Ubuntu, &quot;Droid Sans&quot;, sans-serif, &quot;PingFang SC&quot;; font-size: 9px; font-weight: normal; text-rendering: geometricprecision;"><title>float32[10]</title><tspan style="font-weight: bold;">C</tspan><tspan>〈10〉</tspan></text><line class="node" x1="0" x2="75" y1="0" y2="0" style="stroke: rgb(51, 51, 51); fill: none; stroke-width: 1px;"/></g><path class="node border" d="M5,0h65a5,5 0 0 1 5,5v40a5,5 0 0 1 -5,5h-65a5,5 0 0 1 -5,-5v-40a5,5 0 0 1 5,-5z" style="stroke: rgb(51, 51, 51); fill: none; stroke-width: 1px;"/></g><g class="node" transform="translate(30.303115844726562,885)" style="opacity: 1;"><g class="node-item graph-item-output" transform="translate(0,0)"><path d="M5,0h39.018768310546875a5,5 0 0 1 5,5v10a5,5 0 0 1 -5,5h-39.018768310546875a5,5 0 0 1 -5,-5v-10a5,5 0 0 1 5,-5z" style="stroke: rgb(0, 0, 0); fill: rgb(238, 238, 238); stroke-width: 0;"/><text x="6" y="13" style="font-family: -apple-system, BlinkMacSystemFont, &quot;Segoe WPC&quot;, &quot;Segoe UI&quot;, Ubuntu, &quot;Droid Sans&quot;, sans-serif, &quot;PingFang SC&quot;; font-size: 11px; text-rendering: geometricprecision;">output</text><title>float32[batch_size,10]</title></g><path class="node border" d="M5,0h39.018768310546875a5,5 0 0 1 5,5v10a5,5 0 0 1 -5,5h-39.018768310546875a5,5 0 0 1 -5,-5v-10a5,5 0 0 1 5,-5z" style="stroke: rgb(51, 51, 51); fill: none; stroke-width: 1px;"/></g></g></g></svg>